<?xml version="1.0" encoding="UTF-8"?>
<svg width="160px" height="258px" viewBox="0 0 160 258" version="1.1" xmlns="http://www.w3.org/2000/svg" xmlns:xlink="http://www.w3.org/1999/xlink">
    <!-- Generator: Sketch 49.3 (51167) - http://www.bohemiancoding.com/sketch -->
    <title>Group 8</title>
    <desc>Created with Sketch.</desc>
    <defs>
        <path d="M96.1231845,76 L63.8768155,76 C61.428442,76 59.1148741,74.8788405 57.5977534,72.9571543 L40,50.6666667 L40,109.333333 L57.5977534,87.0428457 C59.1148741,85.1211595 61.428442,84 63.8768155,84 L96.1231845,84 C98.571558,84 100.885126,85.1211595 102.402247,87.0428457 L120,109.333333 L120,50.6666667 L102.402247,72.9571543 C100.885126,74.8788405 98.571558,76 96.1231845,76 Z M80,50.6666667 L117.597753,3.04284569 C119.114874,1.12115947 121.428442,4.49758929e-16 123.876816,0 L152,0 C156.418278,-8.11624501e-16 160,3.581722 160,8 L160,152 C160,156.418278 156.418278,160 152,160 L123.876816,160 C121.428442,160 119.114874,158.878841 117.597753,156.957154 L80,109.333333 L42.4022466,156.957154 C40.8851259,158.878841 38.571558,160 36.1231845,160 L8,160 C3.581722,160 5.41083001e-16,156.418278 0,152 L0,8 C-5.41083001e-16,3.581722 3.581722,8.11624501e-16 8,0 L36.1231845,0 C38.571558,-4.49758929e-16 40.8851259,1.12115947 42.4022466,3.04284569 L80,50.6666667 Z" id="path-1"></path>
    </defs>
    <g id="Page-1" stroke="none" stroke-width="1" fill="none" fill-rule="evenodd">
        <g id="app-routes.login-copy-4" transform="translate(-295.000000, -214.000000)">
            <g id="Group-9" transform="translate(295.000000, 214.000000)">
                <g id="Group-8">
                    <g id="Group-21-Copy">
                        <mask id="mask-2" fill="white">
                            <use xlink:href="#path-1"></use>
                        </mask>
                        <use id="Combined-Shape" fill="#3D8EFF" xlink:href="#path-1"></use>
                        <g id="Group-20" mask="url(#mask-2)">
                            <polygon id="Rectangle-20" fill="#3D8EFF" points="0 0 40 0 100 76 60 76"></polygon>
                            <polygon id="Rectangle-20" fill="#97C1FC" transform="translate(110.000000, 38.000000) scale(1, -1) translate(-110.000000, -38.000000) " points="60 0 100 0 160 76 120 76"></polygon>
                            <rect id="Rectangle-20" fill="#6BA8FC" x="120" y="0" width="40" height="80"></rect>
                            <rect id="Rectangle-20" fill="#6BA8FC" x="0" y="0" width="40" height="80"></rect>
                            <rect id="Rectangle-20" fill="#6BA8FC" x="0" y="80" width="40" height="80"></rect>
                            <polygon id="Rectangle-20" fill="#97C1FC" transform="translate(50.000000, 122.000000) scale(1, -1) translate(-50.000000, -122.000000) " points="0 84 40 84 100 160 60 160"></polygon>
                            <polygon id="Rectangle-20" fill="#3D8EFF" points="60 84 100 84 160 160 120 160"></polygon>
                            <rect id="Rectangle-20" fill="#6BA8FC" x="120" y="80" width="40" height="80"></rect>
                        </g>
                    </g>
                    <g id="Group-Copy-2" transform="translate(18.000000, 184.000000)" fill="#6BA8FC">
                        <path d="M40.7802166,6.32915838 L40.078125,7.03125 L52.734375,7.03125 C54.6760011,7.03125 56.25,8.60524893 56.25,10.546875 C56.25,12.4885011 54.6760011,14.0625 52.734375,14.0625 L24.609375,14.0625 C22.6677489,14.0625 21.09375,12.4885011 21.09375,10.546875 C21.09375,8.60524893 22.6677489,7.03125 24.609375,7.03125 L30.234375,7.03125 L35.8583416,1.40728338 C36.4996889,0.552787812 37.5212267,0 38.671875,0 C40.6135011,0 42.1875,1.57399893 42.1875,3.515625 C42.1875,4.66627332 41.6347122,5.68781114 40.7802166,6.32915838 Z M1.27692394,13.9884047 L12.8985881,1.55968049 C13.5295154,0.619086266 14.6026163,0 15.8203125,0 C17.7619386,0 19.3359375,1.57399893 19.3359375,3.515625 C19.3359375,4.6066537 18.8389499,5.58160472 18.0590136,6.22643906 L14.0622071,10.5008015 C14.0624012,10.516138 14.0625,10.531495 14.0625,10.546875 L14.0625,70.3125 C14.0625,72.2541261 12.4885011,73.828125 10.546875,73.828125 C8.60524893,73.828125 7.03125,72.2541261 7.03125,70.3125 L7.03125,18.0200195 L6.43734937,18.6551633 C5.80642213,19.5957575 4.73332124,20.2148438 3.515625,20.2148438 C1.57399893,20.2148438 0,18.6408448 0,16.6992188 C0,15.60819 0.496987646,14.633239 1.27692394,13.9884047 Z M49.21875,52.734375 L28.125,52.734375 L28.125,66.796875 L49.21875,66.796875 L49.21875,52.734375 Z M55.2202973,46.7328277 C55.8565003,47.3690307 56.25,48.247937 56.25,49.21875 L56.25,70.3125 C56.25,72.2541261 54.6760011,73.828125 52.734375,73.828125 L24.609375,73.828125 C22.6677489,73.828125 21.09375,72.2541261 21.09375,70.3125 L21.09375,49.21875 C21.09375,47.2771239 22.6677489,45.703125 24.609375,45.703125 L52.734375,45.703125 C53.705188,45.703125 54.5840943,46.0966247 55.2202973,46.7328277 Z M79.6299396,67.4989666 L84.3390599,62.7898463 C83.3080888,62.1770288 82.6171875,61.0520112 82.6171875,59.765625 C82.6171875,57.8239989 84.1911864,56.25 86.1328125,56.25 L90.8789063,56.25 L94.3945313,52.734375 L86.1818399,52.734375 L73.1815913,66.1923788 C72.5446227,67.0900219 71.4969671,67.6757813 70.3125,67.6757813 C68.3708739,67.6757813 66.796875,66.1017823 66.796875,64.1601563 C66.796875,63.041355 67.3194867,62.0446163 68.1339061,61.400744 L76.5055006,52.734375 L70.3125,52.734375 C68.3708739,52.734375 66.796875,51.1603761 66.796875,49.21875 C66.796875,47.2771239 68.3708739,45.703125 70.3125,45.703125 L83.2975925,45.703125 L86.6936384,42.1875 L77.34375,42.1875 C75.4021239,42.1875 73.828125,40.6135011 73.828125,38.671875 L73.828125,17.578125 C73.828125,15.6364989 75.4021239,14.0625 77.34375,14.0625 L112.5,14.0625 C114.441626,14.0625 116.015625,15.6364989 116.015625,17.578125 L116.015625,38.671875 C116.015625,40.6135011 114.441626,42.1875 112.5,42.1875 L96.3699777,42.1875 L92.9739318,45.703125 L119.53125,45.703125 C121.472876,45.703125 123.046875,47.2771239 123.046875,49.21875 C123.046875,51.1603761 121.472876,52.734375 119.53125,52.734375 L113.524117,52.734375 L121.749833,61.4328331 C122.541331,62.077471 123.046875,63.0597755 123.046875,64.1601563 C123.046875,66.1017823 121.472876,67.6757813 119.53125,67.6757813 C118.32519,67.6757813 117.260975,67.0684702 116.627734,66.1429769 L104.089014,52.8836418 L100.722656,56.25 L103.710938,56.25 C105.652564,56.25 107.226562,57.8239989 107.226562,59.765625 L107.226562,70.3125 C107.226562,72.2541261 105.652564,73.828125 103.710938,73.828125 L94.921875,73.828125 C92.9802489,73.828125 91.40625,72.2541261 91.40625,70.3125 C91.40625,68.3708739 92.9802489,66.796875 94.921875,66.796875 L100.195312,66.796875 L100.195312,63.28125 L93.6914062,63.28125 L84.5518146,72.4208416 C83.9104674,73.2753372 82.8889296,73.828125 81.7382812,73.828125 C79.7966552,73.828125 78.2226562,72.2541261 78.2226562,70.3125 C78.2226562,69.1618517 78.7754441,68.1403139 79.6299396,67.4989666 Z M80.859375,24.609375 L108.984375,24.609375 L108.984375,21.09375 L80.859375,21.09375 L80.859375,24.609375 Z M80.859375,31.640625 L80.859375,35.15625 L108.984375,35.15625 L108.984375,31.640625 L80.859375,31.640625 Z M87.890625,3.515625 L101.953125,3.515625 C101.953125,1.57399893 103.527124,3.56670923e-16 105.46875,0 C107.410376,-3.56670923e-16 108.984375,1.57399893 108.984375,3.515625 L114.257812,3.515625 C116.199439,3.515625 117.773438,5.08962393 117.773438,7.03125 C117.773438,8.97287607 116.199439,10.546875 114.257812,10.546875 L75.5859375,10.546875 C73.6443114,10.546875 72.0703125,8.97287607 72.0703125,7.03125 C72.0703125,5.08962393 73.6443114,3.515625 75.5859375,3.515625 L80.859375,3.515625 C80.859375,1.57399893 82.4333739,3.56670923e-16 84.375,0 C86.3166261,-3.56670923e-16 87.890625,1.57399893 87.890625,3.515625 Z M24.609375,19.3359375 L52.734375,19.3359375 C54.6760011,19.3359375 56.25,20.9099364 56.25,22.8515625 C56.25,24.7931886 54.6760011,26.3671875 52.734375,26.3671875 L24.609375,26.3671875 C22.6677489,26.3671875 21.09375,24.7931886 21.09375,22.8515625 C21.09375,20.9099364 22.6677489,19.3359375 24.609375,19.3359375 Z M24.609375,31.640625 L52.734375,31.640625 C54.6760011,31.640625 56.25,33.2146239 56.25,35.15625 C56.25,37.0978761 54.6760011,38.671875 52.734375,38.671875 L24.609375,38.671875 C22.6677489,38.671875 21.09375,37.0978761 21.09375,35.15625 C21.09375,33.2146239 22.6677489,31.640625 24.609375,31.640625 Z" id="Combined-Shape"></path>
                    </g>
                </g>
            </g>
        </g>
    </g>
</svg>